<mxfile host="app.diagrams.net" modified="2022-11-28T20:59:07.110Z" agent="5.0 (Windows NT 10.0; Win64; x64) AppleWebKit/537.36 (KHTML, like Gecko) Chrome/107.0.0.0 Safari/537.36" etag="DiMZWpOdqR2-7mXtWpRY" version="20.6.0" type="github">
  <diagram id="TDD3DlGXEbV9IOPgScCF" name="PÃ¡gina-1">
    <mxGraphModel dx="413" dy="214" grid="1" gridSize="10" guides="1" tooltips="1" connect="1" arrows="1" fold="1" page="1" pageScale="1" pageWidth="827" pageHeight="1169" math="0" shadow="0">
      <root>
        <mxCell id="0" />
        <mxCell id="1" parent="0" />
        <mxCell id="wjJ1wBpAPWjhshaP4NoO-37" value="" style="dashed=0;fontSize=18;shape=mxgraph.gmdl.mail;verticalAlign=top;labelPosition=center;verticalLabelPosition=bottom;align=center;spacingTop=0;fillColor=#eeeeee;strokeColor=#36393d;strokeWidth=3;flipH=0;flipV=0;spacing=5;" parent="1" vertex="1">
          <mxGeometry x="679.85" y="210" width="32" height="22" as="geometry" />
        </mxCell>
        <mxCell id="wjJ1wBpAPWjhshaP4NoO-38" value="acronisUpdateSubscription" style="text;html=1;align=left;verticalAlign=middle;resizable=0;points=[];autosize=1;strokeColor=none;fillColor=none;fontSize=18;" parent="1" vertex="1">
          <mxGeometry x="724.85" y="201" width="240" height="40" as="geometry" />
        </mxCell>
        <mxCell id="wjJ1wBpAPWjhshaP4NoO-39" value="" style="dashed=0;fontSize=18;shape=mxgraph.gmdl.mail;verticalAlign=top;labelPosition=center;verticalLabelPosition=bottom;align=center;spacingTop=0;fillColor=#eeeeee;strokeColor=#36393d;strokeWidth=3;flipH=0;flipV=0;spacing=5;" parent="1" vertex="1">
          <mxGeometry x="679.85" y="269" width="32" height="22" as="geometry" />
        </mxCell>
        <mxCell id="wjJ1wBpAPWjhshaP4NoO-40" value="acronisLegacyUpgrade" style="text;html=1;align=left;verticalAlign=middle;resizable=0;points=[];autosize=1;strokeColor=none;fillColor=none;fontSize=18;" parent="1" vertex="1">
          <mxGeometry x="724.85" y="260" width="210" height="40" as="geometry" />
        </mxCell>
        <mxCell id="wjJ1wBpAPWjhshaP4NoO-41" value="acronisLegacyCommitTierUpgrade" style="text;html=1;align=left;verticalAlign=middle;resizable=0;points=[];autosize=1;strokeColor=none;fillColor=none;fontSize=18;" parent="1" vertex="1">
          <mxGeometry x="725" y="300" width="300" height="40" as="geometry" />
        </mxCell>
        <mxCell id="wjJ1wBpAPWjhshaP4NoO-42" value="" style="dashed=0;fontSize=18;shape=mxgraph.gmdl.mail;verticalAlign=top;labelPosition=center;verticalLabelPosition=bottom;align=center;spacingTop=0;fillColor=#eeeeee;strokeColor=#36393d;strokeWidth=3;flipH=0;flipV=0;spacing=5;" parent="1" vertex="1">
          <mxGeometry x="680" y="309" width="32" height="22" as="geometry" />
        </mxCell>
        <mxCell id="wjJ1wBpAPWjhshaP4NoO-43" value="acronisLegacyCommitTierDowngrade" style="text;html=1;align=left;verticalAlign=middle;resizable=0;points=[];autosize=1;strokeColor=none;fillColor=none;fontSize=18;" parent="1" vertex="1">
          <mxGeometry x="725" y="340" width="320" height="40" as="geometry" />
        </mxCell>
        <mxCell id="wjJ1wBpAPWjhshaP4NoO-44" value="" style="dashed=0;fontSize=18;shape=mxgraph.gmdl.mail;verticalAlign=top;labelPosition=center;verticalLabelPosition=bottom;align=center;spacingTop=0;fillColor=#eeeeee;strokeColor=#36393d;strokeWidth=3;flipH=0;flipV=0;spacing=5;" parent="1" vertex="1">
          <mxGeometry x="680" y="349" width="32" height="22" as="geometry" />
        </mxCell>
        <mxCell id="wjJ1wBpAPWjhshaP4NoO-46" value="&lt;div style=&quot;font-family: Consolas, &amp;quot;Courier New&amp;quot;, monospace; font-size: 12px; line-height: 15px;&quot;&gt;&lt;span style=&quot;background-color: rgb(77, 77, 77); font-size: 12px;&quot;&gt;&lt;span style=&quot;font-size: 12px;&quot;&gt;partner.attributeMap[&#39;&lt;/span&gt;&lt;font color=&quot;#ffff33&quot; style=&quot;font-size: 12px;&quot;&gt;&lt;b style=&quot;font-size: 12px;&quot;&gt;acronisRapTenant&lt;/b&gt;&lt;/font&gt;&lt;span style=&quot;font-size: 12px;&quot;&gt;&#39;]&lt;/span&gt;&lt;/span&gt;&lt;/div&gt;" style="text;html=1;align=left;verticalAlign=middle;resizable=0;points=[];autosize=1;strokeColor=#314354;fillColor=none;fontSize=12;fontColor=#FFFFFF;" parent="1" vertex="1">
          <mxGeometry x="80" y="440" width="290" height="30" as="geometry" />
        </mxCell>
        <mxCell id="wjJ1wBpAPWjhshaP4NoO-47" value="&lt;div style=&quot;line-height: 15px; font-size: 12px;&quot;&gt;&lt;span style=&quot;background-color: rgb(77, 77, 77); font-size: 12px;&quot;&gt;&lt;font face=&quot;Consolas, Courier New, monospace&quot; style=&quot;font-size: 12px;&quot;&gt;&lt;span style=&quot;font-size: 12px;&quot;&gt;instance.attributeMap[&#39;&lt;/span&gt;&lt;/font&gt;&lt;font color=&quot;#ffff33&quot; face=&quot;Consolas, Courier New, monospace&quot; style=&quot;font-size: 12px;&quot;&gt;&lt;span style=&quot;font-size: 12px;&quot;&gt;&lt;b style=&quot;font-size: 12px;&quot;&gt;acronisPax8IncTenant&lt;/b&gt;&lt;/span&gt;&lt;/font&gt;&lt;font face=&quot;Consolas, Courier New, monospace&quot; style=&quot;font-size: 12px;&quot;&gt;&lt;span style=&quot;font-size: 12px;&quot;&gt;&#39;]&lt;/span&gt;&lt;/font&gt;&lt;/span&gt;&lt;/div&gt;" style="text;html=1;align=left;verticalAlign=middle;resizable=0;points=[];autosize=1;strokeColor=#314354;fillColor=none;fontSize=12;fontColor=#FFFFFF;" parent="1" vertex="1">
          <mxGeometry x="65" y="470" width="320" height="30" as="geometry" />
        </mxCell>
        <mxCell id="wjJ1wBpAPWjhshaP4NoO-48" value="&lt;div style=&quot;line-height: 15px; font-size: 12px;&quot;&gt;&lt;span style=&quot;background-color: rgb(77, 77, 77); font-size: 12px;&quot;&gt;&lt;font face=&quot;Consolas, Courier New, monospace&quot; style=&quot;font-size: 12px;&quot;&gt;&lt;span style=&quot;font-size: 12px;&quot;&gt;instance.attributeMap[&#39;&lt;/span&gt;&lt;/font&gt;&lt;font face=&quot;Consolas, Courier New, monospace&quot; style=&quot;font-size: 12px;&quot;&gt;&lt;font color=&quot;#ffff33&quot; style=&quot;font-size: 12px;&quot;&gt;&lt;span style=&quot;font-size: 12px;&quot;&gt;&lt;b style=&quot;font-size: 12px;&quot;&gt;acronisLastSeenHere&lt;/b&gt;&lt;/span&gt;&lt;/font&gt;&lt;font style=&quot;font-size: 12px;&quot;&gt;&lt;span style=&quot;font-size: 12px;&quot;&gt;&#39;]&lt;/span&gt;&lt;/font&gt;&lt;/font&gt;&lt;/span&gt;&lt;/div&gt;" style="text;html=1;align=left;verticalAlign=middle;resizable=0;points=[];autosize=1;strokeColor=#314354;fillColor=none;fontSize=12;spacing=0;fontColor=#FFFFFF;" parent="1" vertex="1">
          <mxGeometry x="50" y="249" width="310" height="20" as="geometry" />
        </mxCell>
        <mxCell id="wjJ1wBpAPWjhshaP4NoO-50" value="&lt;div style=&quot;line-height: 15px; font-size: 15px;&quot;&gt;&lt;font face=&quot;Consolas, Courier New, monospace&quot; style=&quot;font-size: 15px;&quot;&gt;&lt;font style=&quot;font-size: 15px;&quot; color=&quot;#e6db74&quot;&gt;&lt;font style=&quot;font-size: 15px;&quot;&gt;&lt;b&gt;PUT &lt;/b&gt;&lt;/font&gt;&lt;span style=&quot;font-size: 15px;&quot;&gt;.../tenants/${&lt;/span&gt;&lt;/font&gt;&lt;font style=&quot;font-size: 15px;&quot; color=&quot;#00cc00&quot;&gt;tenantId&lt;/font&gt;&lt;font style=&quot;font-size: 15px;&quot; color=&quot;#e6db74&quot;&gt;}/tier_level_value&lt;/font&gt;&lt;/font&gt;&lt;br style=&quot;font-size: 15px;&quot;&gt;&lt;/div&gt;" style="text;html=1;align=left;verticalAlign=middle;resizable=0;points=[];autosize=1;strokeColor=none;fillColor=none;fontSize=15;" parent="1" vertex="1">
          <mxGeometry x="719.7" y="160" width="390" height="30" as="geometry" />
        </mxCell>
        <mxCell id="wjJ1wBpAPWjhshaP4NoO-88" value="" style="dashed=0;html=1;shape=mxgraph.gmdl.upload;strokeColor=#314354;fillColor=#647687;labelBackgroundColor=#4D4D4D;fontSize=18;fontColor=#ffffff;" parent="1" vertex="1">
          <mxGeometry x="679.85" y="165" width="35" height="25" as="geometry" />
        </mxCell>
        <mxCell id="wjJ1wBpAPWjhshaP4NoO-92" value="" style="endArrow=classic;html=1;rounded=0;fontSize=12;fontColor=#FFFFFF;" parent="1" edge="1">
          <mxGeometry relative="1" as="geometry">
            <mxPoint x="380" y="463" as="sourcePoint" />
            <mxPoint x="640" y="465" as="targetPoint" />
          </mxGeometry>
        </mxCell>
        <mxCell id="wjJ1wBpAPWjhshaP4NoO-93" value="If one of them have a value, &lt;br&gt;it will send an API request" style="edgeLabel;resizable=0;html=1;align=center;verticalAlign=middle;labelBackgroundColor=#4D4D4D;fontSize=12;fontColor=#FFFFFF;fillColor=none;" parent="wjJ1wBpAPWjhshaP4NoO-92" connectable="0" vertex="1">
          <mxGeometry relative="1" as="geometry" />
        </mxCell>
        <mxCell id="wjJ1wBpAPWjhshaP4NoO-98" value="" style="endArrow=classic;html=1;rounded=0;fontSize=12;fontColor=#FFFFFF;" parent="1" source="wjJ1wBpAPWjhshaP4NoO-48" target="rIQfyR41lnT2qLLvc7yr-7" edge="1">
          <mxGeometry relative="1" as="geometry">
            <mxPoint x="310" y="270" as="sourcePoint" />
            <mxPoint x="555" y="266.72400000000005" as="targetPoint" />
            <Array as="points">
              <mxPoint x="380" y="260" />
              <mxPoint x="380" y="200" />
            </Array>
          </mxGeometry>
        </mxCell>
        <mxCell id="wjJ1wBpAPWjhshaP4NoO-99" value="NON legacy account&amp;nbsp;" style="edgeLabel;resizable=0;html=1;align=center;verticalAlign=middle;labelBackgroundColor=#4D4D4D;fontSize=12;fontColor=#FFFFFF;fillColor=none;" parent="wjJ1wBpAPWjhshaP4NoO-98" connectable="0" vertex="1">
          <mxGeometry relative="1" as="geometry">
            <mxPoint x="-18" as="offset" />
          </mxGeometry>
        </mxCell>
        <mxCell id="wjJ1wBpAPWjhshaP4NoO-100" value="" style="endArrow=classic;html=1;rounded=0;fontSize=12;fontColor=#FFFFFF;" parent="1" source="wjJ1wBpAPWjhshaP4NoO-48" edge="1">
          <mxGeometry relative="1" as="geometry">
            <mxPoint x="289.9968573224386" y="268.99999999999994" as="sourcePoint" />
            <mxPoint x="550" y="320" as="targetPoint" />
            <Array as="points">
              <mxPoint x="380" y="260" />
              <mxPoint x="380" y="320" />
            </Array>
          </mxGeometry>
        </mxCell>
        <mxCell id="wjJ1wBpAPWjhshaP4NoO-101" value="legacy account&amp;nbsp;" style="edgeLabel;resizable=0;html=1;align=center;verticalAlign=middle;labelBackgroundColor=#4D4D4D;fontSize=12;fontColor=#FFFFFF;fillColor=none;" parent="wjJ1wBpAPWjhshaP4NoO-100" connectable="0" vertex="1">
          <mxGeometry relative="1" as="geometry">
            <mxPoint x="45" as="offset" />
          </mxGeometry>
        </mxCell>
        <mxCell id="wjJ1wBpAPWjhshaP4NoO-104" value="" style="endArrow=classic;html=1;rounded=0;fontSize=12;fontColor=#FFFFFF;" parent="1" target="wjJ1wBpAPWjhshaP4NoO-39" edge="1">
          <mxGeometry relative="1" as="geometry">
            <mxPoint x="550" y="320" as="sourcePoint" />
            <mxPoint x="795" y="236.72399999999993" as="targetPoint" />
            <Array as="points">
              <mxPoint x="550" y="280" />
            </Array>
          </mxGeometry>
        </mxCell>
        <mxCell id="wjJ1wBpAPWjhshaP4NoO-105" value="newTier = oldTier" style="edgeLabel;resizable=0;html=1;align=center;verticalAlign=middle;labelBackgroundColor=#4D4D4D;fontSize=12;fontColor=#FFFFFF;fillColor=none;" parent="wjJ1wBpAPWjhshaP4NoO-104" connectable="0" vertex="1">
          <mxGeometry relative="1" as="geometry">
            <mxPoint x="15" as="offset" />
          </mxGeometry>
        </mxCell>
        <mxCell id="wjJ1wBpAPWjhshaP4NoO-106" value="" style="endArrow=classic;html=1;rounded=0;fontSize=12;fontColor=#FFFFFF;" parent="1" target="wjJ1wBpAPWjhshaP4NoO-42" edge="1">
          <mxGeometry relative="1" as="geometry">
            <mxPoint x="550" y="320" as="sourcePoint" />
            <mxPoint x="680" y="260" as="targetPoint" />
          </mxGeometry>
        </mxCell>
        <mxCell id="wjJ1wBpAPWjhshaP4NoO-107" value="newTier &amp;gt; oldTier" style="edgeLabel;resizable=0;html=1;align=center;verticalAlign=middle;labelBackgroundColor=#4D4D4D;fontSize=12;fontColor=#FFFFFF;fillColor=none;" parent="wjJ1wBpAPWjhshaP4NoO-106" connectable="0" vertex="1">
          <mxGeometry relative="1" as="geometry">
            <mxPoint x="-5" as="offset" />
          </mxGeometry>
        </mxCell>
        <mxCell id="wjJ1wBpAPWjhshaP4NoO-108" value="" style="endArrow=classic;html=1;rounded=0;fontSize=12;fontColor=#FFFFFF;" parent="1" edge="1">
          <mxGeometry relative="1" as="geometry">
            <mxPoint x="550" y="320" as="sourcePoint" />
            <mxPoint x="680" y="360" as="targetPoint" />
            <Array as="points">
              <mxPoint x="550" y="360" />
            </Array>
          </mxGeometry>
        </mxCell>
        <mxCell id="wjJ1wBpAPWjhshaP4NoO-109" value="newTier &amp;lt; oldTier" style="edgeLabel;resizable=0;html=1;align=center;verticalAlign=middle;labelBackgroundColor=#4D4D4D;fontSize=12;fontColor=#FFFFFF;fillColor=none;" parent="wjJ1wBpAPWjhshaP4NoO-108" connectable="0" vertex="1">
          <mxGeometry relative="1" as="geometry">
            <mxPoint x="15" as="offset" />
          </mxGeometry>
        </mxCell>
        <mxCell id="rIQfyR41lnT2qLLvc7yr-1" value="" style="shape=image;html=1;verticalAlign=top;verticalLabelPosition=bottom;labelBackgroundColor=#ffffff;imageAspect=0;aspect=fixed;image=https://cdn0.iconfinder.com/data/icons/evericons-16px/16/x-128.png" vertex="1" parent="1">
          <mxGeometry x="20" y="440" width="60" height="60" as="geometry" />
        </mxCell>
        <mxCell id="rIQfyR41lnT2qLLvc7yr-7" value="" style="rounded=0;whiteSpace=wrap;html=1;fillColor=none;" vertex="1" parent="1">
          <mxGeometry x="670" y="161" width="430" height="80" as="geometry" />
        </mxCell>
      </root>
    </mxGraphModel>
  </diagram>
</mxfile>
